<?xml version="1.0" encoding="iso-8859-1"?>
<!-- Generator: Adobe Illustrator 19.0.0, SVG Export Plug-In . SVG Version: 6.00 Build 0)  -->
<svg version="1.1" id="Capa_1" xmlns="http://www.w3.org/2000/svg" xmlns:xlink="http://www.w3.org/1999/xlink" x="0px" y="0px"
	 viewBox="0 0 472.082 472.082" style="enable-background:new 0 0 472.082 472.082;" xml:space="preserve">
<g>
	<path d="M236.041,126.712c-60.284,0-109.329,49.045-109.329,109.329S175.757,345.37,236.041,345.37S345.37,296.325,345.37,236.041
		S296.325,126.712,236.041,126.712z M236.041,315.37c-43.742,0-79.329-35.587-79.329-79.329s35.587-79.329,79.329-79.329
		s79.329,35.587,79.329,79.329S279.783,315.37,236.041,315.37z"/>
	<path d="M401.68,271.242l70.402-35.201L401.68,200.84c-4.375-20.609-12.509-39.843-23.65-56.951l24.919-74.754l-74.755,24.918
		c-17.108-11.141-36.342-19.275-56.952-23.651L236.041,0L200.84,70.402c-20.61,4.375-39.844,12.509-56.952,23.651L69.135,69.135
		l24.918,74.754c-11.141,17.108-19.275,36.342-23.65,56.951L0,236.041l70.402,35.201c4.375,20.609,12.509,39.843,23.65,56.951
		l-24.918,74.754l74.754-24.918c17.108,11.141,36.342,19.275,56.952,23.651l35.201,70.402l35.201-70.402
		c20.61-4.375,39.844-12.509,56.952-23.651l74.755,24.918l-24.919-74.754C389.171,311.086,397.305,291.852,401.68,271.242z
		 M236.041,375.37c-76.826,0-139.329-62.503-139.329-139.329S159.215,96.712,236.041,96.712S375.37,159.215,375.37,236.041
		S312.867,375.37,236.041,375.37z"/>
</g>
<g>
</g>
<g>
</g>
<g>
</g>
<g>
</g>
<g>
</g>
<g>
</g>
<g>
</g>
<g>
</g>
<g>
</g>
<g>
</g>
<g>
</g>
<g>
</g>
<g>
</g>
<g>
</g>
<g>
</g>
</svg>
